# xmcd
#
# Track frame offsets: 
#        150
#        10405
#        21198
#        31777
#        41954
#        52972
#        64693
#        75413
#        87344
#        95613
#        105667
#        118940
#        128223
#        137720
#        146505
#        155048
#        163738
#        171779
#        182791
#        192154
#        204328
#        215544
#        227077
#        238220
#        249679
#        258931
#        269828
#        277541
#
# Disc length: 3873 seconds
#
# Revision: 1
# Processed by: cddbd v1.5.2PL0 Copyright (c) Steve Scherf et al.
# Submitted via: ExactAudioCopyFreeDBPlugin 1.0
#
DISCID=930f1f1c
DTITLE=Various Artist - Gumbo Ya Ya:  The Cosimo Matassa Story, Volum
DTITLE=e 2
DYEAR=2013
DGENRE=Rhythm and Blues
TTITLE0=Huey "Piano" Smith and The Clowns - Rockin' Pneumonia and the Bo
TTITLE0=ogie Woogie Flu (Pt. 1)
TTITLE1=Huey "Piano" Smith and The Clowns - Rockin' Pneumonia and the Bo
TTITLE1=ogie Woogie Flu (Pt. 2)
TTITLE2=Charles "Hungry" Williams - Darling
TTITLE3=Charles "Hungry" Williams - So Worried
TTITLE4=Lee Allen - Walkin' with Mr. Lee
TTITLE5=Lee Allen - Tic Toc
TTITLE6=Paul Gayten - Nervous Boogie
TTITLE7=Shirley and Lee - Rockin' with the Clock
TTITLE8=Eddie Bo - Walk That Walk
TTITLE9=T.V. Slim - Flatfoot Sam
TTITLE10=Paul Gayten - Tired of Cryin'
TTITLE11=Paul Gayten - Just One More Chance
TTITLE12=Bobby Mitchell - I'm Gonna Be a Wheel Someday
TTITLE13=Allen Toussaint - Java
TTITLE14=Little Booker - Teenage Rock
TTITLE15=Jerry Byrne - Lights Out
TTITLE16=Paul Gayten - Windy
TTITLE17=Joe Tex - You Little Baby Face Thing
TTITLE18=Art Neville - Zing Zing
TTITLE19=Art Neville - Cha Dooky-Doo
TTITLE20=Eddie Bo - Oh Oh
TTITLE21=Huey "Piano" Smith and The Clowns - Don't You Just Know It
TTITLE22=Huey "Piano" Smith and The Clowns - Don't You Know Yockomo
TTITLE23=Jimmy Clanton and The Rockets - Just a Dream
TTITLE24=Art Neville - What's Going On
TTITLE25=Art Neville - Arabian Love Call
TTITLE26="Fats" Domino - Whole Lotta Loving
TTITLE27=Jimmy Clanton - A Letter to an Angel
EXTD=Proper Box 174
EXTT0=
EXTT1=
EXTT2=
EXTT3=
EXTT4=
EXTT5=
EXTT6=
EXTT7=
EXTT8=
EXTT9=
EXTT10=
EXTT11=
EXTT12=
EXTT13=
EXTT14=
EXTT15=
EXTT16=
EXTT17=
EXTT18=
EXTT19=
EXTT20=
EXTT21=
EXTT22=
EXTT23=
EXTT24=
EXTT25=
EXTT26=
EXTT27=
PLAYORDER=
